HIERARCHY
ROOT pelvis
{
  OFFSET 0 100 0
  CHANNELS 6 Xposition Yposition Zposition Zrotation Xrotation Yrotation
  JOINT pelvis_right_femur
  {
    OFFSET -10.78128 -3.44521 -0.5502486
    CHANNELS 3 Zrotation Xrotation Yrotation
    JOINT right_femur_tibia
    {
      OFFSET -0.8047443 -44.0398 -0.1307829
      CHANNELS 3 Zrotation Xrotation Yrotation
      JOINT right_tibia_foot
      {
        OFFSET 3.006224 -47.83518 -5
        CHANNELS 3 Zrotation Xrotation Yrotation
        End Site
        {
          OFFSET 0 -5 15
        }
      }
    }
  }
  JOINT pelvis_left_femur
  {
    OFFSET 10.78128 -3.44521 -0.5502486
    CHANNELS 3 Zrotation Xrotation Yrotation
    JOINT left_femur_tibia
    {
      OFFSET 0.8047443 -44.0398 -0.1307829
      CHANNELS 3 Zrotation Xrotation Yrotation
      JOINT left_tibia_foot
      {
        OFFSET -4.370144 -48.10324 -4.275266
        CHANNELS 3 Zrotation Xrotation Yrotation
        End Site
        {
          OFFSET 0 -5 15
        }
      }
    }
  }
  JOINT pelvis_spine1
  {
    OFFSET 0 6.468898 -3.129235
    CHANNELS 3 Zrotation Xrotation Yrotation
    JOINT spine1
    {
      OFFSET 0 23.15396 4.99043
      CHANNELS 3 Zrotation Xrotation Yrotation
      JOINT spine2
      {
        OFFSET 0 20.79997 -5.064912
        CHANNELS 3 Zrotation Xrotation Yrotation
        JOINT neck
        {
          OFFSET 0 14.38658 9.616178
          CHANNELS 3 Zrotation Xrotation Yrotation
          End Site
          {
            OFFSET 0 20 0
          }
        }
      }
      JOINT right_manubrium
      {
        OFFSET -5.722621 16.35077 3.967754
        CHANNELS 3 Zrotation Xrotation Yrotation
        JOINT right_clavicle
        {
          OFFSET -13.16364 1.694482 -4.693211
          CHANNELS 3 Zrotation Xrotation Yrotation
          JOINT right_humerus
          {
            OFFSET -28.5034 -0.3100689 -2.792744
            CHANNELS 3 Zrotation Xrotation Yrotation
            JOINT right_radius
            {
              OFFSET -25.15693 0.02248979 -1.271978
              CHANNELS 3 Zrotation Xrotation Yrotation
              End Site
              {
                OFFSET -15 0 0
              }
            }
          }
        }
      }
      JOINT left_manubrium
      {
        OFFSET 5.722621 16.35077 3.967754
        CHANNELS 3 Zrotation Xrotation Yrotation
        JOINT left_clavicle
        {
          OFFSET 13.16364 1.694482 -4.693211
          CHANNELS 3 Zrotation Xrotation Yrotation
          JOINT left_humerus
          {
            OFFSET 29.39168 -1.063119 -2.237045
            CHANNELS 3 Zrotation Xrotation Yrotation
            JOINT left_radius
            {
              OFFSET 24.59957 -0.9528479 0.9047498
              CHANNELS 3 Zrotation Xrotation Yrotation
              End Site
              {
                OFFSET 15 -0 -0
              }
            }
          }
        }
      }
    }
  }
}
MOTION
Frames: 16
Frame Time: 0.0416666666667
25.44336 105.5033 235.3474 1.991323 -6.474622 2.042298 0.3295032 11.03152 6.67313 -1.580511e-10 34.00653 1.760694e-10 3.336994 -11.64 -3.979168 -2.648926 -18.26992 -7.894638 3.405916e-10 18.91183 -5.005626e-10 -2.055734 -8.132331 20.7119 -2.763686 0.4195465 7.551248 -0.6394872 9.784953 -3.595071 2.394987 22.37888 5.61493 1.947847 -16.90041 7.968006 3.148206 -20.53608 11.07541 81.60323 28.89201 -5.947003 -2.585336e-10 1.254953e-10 22.41294 -23.97799 13.80251 14.63866 3.663121 -14.93046 -2.639253 -92.17213 22.27886 22.26698 1.939178e-11 7.693054e-11 -11.47351 0.1211709 6.363651 14.42625
26.62835 105.7763 241.3721 2.157496 -6.841175 2.303216 -0.117053 9.317294 6.769054 -3.791489e-10 40.50718 1.686676e-10 3.339312 -8.95974 -4.50627 -3.732828 -15.22237 -8.973508 -4.982066e-11 20.21789 -7.018399e-10 -1.968884 -8.59839 20.63347 -2.994485 0.4406004 7.020668 -0.7411817 9.735088 -3.595773 2.448304 22.54901 5.812668 2.055494 -16.84208 8.191891 3.481888 -19.60371 10.92754 81.86896 29.07402 -6.55163 -3.346903e-10 2.212736e-10 21.01541 -23.49005 13.46953 14.17884 3.470382 -14.62935 -2.741927 -91.41089 22.81465 21.2651 -6.438209e-11 1.858532e-10 -10.9303 0.1878855 6.490793 14.42936
27.79949 106.4607 247.2737 2.381918 -7.18876 2.789236 -0.600005 6.319911 6.748297 -5.28986e-10 47.27063 1.608775e-10 3.451051 -6.206402 -5.227208 -4.960158 -10.86534 -10.29048 -4.607273e-10 20.53301 -7.663167e-10 -1.799225 -9.71529 20.61815 -3.310958 0.4796775 6.297709 -0.7972684 9.587995 -3.702264 2.527241 22.84462 6.065972 2.155327 -16.79326 8.536085 3.81449 -18.46832 10.72017 82.67162 29.32793 -7.628672 -3.499694e-10 2.845715e-10 19.29862 -22.8569 13.08834 13.58554 3.423139 -14.44556 -2.865543 -90.62954 23.52516 19.68276 -1.318976e-10 2.615194e-10 -10.81908 0.3309813 6.770299 14.32568
28.91729 107.3944 252.9722 2.552412 -7.335507 3.435717 -0.847241 2.207005 6.559809 -4.176672e-10 51.75903 4.275132e-11 3.396576 -4.366799 -5.949865 -5.980101 -5.723762 -11.64147 -8.446386e-10 20.08368 -5.220012e-10 -1.605857 -11.29128 20.60429 -3.583414 0.5346564 5.451052 -0.7190986 9.254043 -3.914216 2.624796 23.15348 6.260501 2.211766 -16.77445 8.892301 4.036798 -17.20492 10.42874 83.51727 29.56833 -9.015149 -2.09675e-10 2.507139e-10 17.37016 -21.71946 12.59241 12.6706 3.571255 -14.42437 -2.932566 -89.59927 24.39952 17.55088 -1.529399e-10 2.45435e-10 -11.22376 0.5975472 7.34243 13.93708
29.96685 108.3581 258.4817 2.656747 -7.274043 4.180504 -0.8669359 -2.422914 6.164878 -1.349819e-10 53.28471 -1.37862e-10 3.223726 -3.403566 -6.559543 -6.628436 -0.636307 -12.6893 -1.062841e-09 18.80219 -1.381581e-10 -1.357395 -13.06655 20.51876 -3.768385 0.5707476 4.637391 -0.5362656 8.89264 -4.237746 2.699022 23.39544 6.392395 2.22669 -16.79475 9.185825 4.086508 -16.09952 10.14893 84.47454 29.67923 -10.60828 -1.365854e-11 1.490701e-10 15.55345 -20.54099 12.14877 11.72604 3.904021 -14.69026 -3.016899 -88.48337 25.06906 15.2153 -1.306226e-10 1.662834e-10 -12.27751 1.034671 8.02579 13.24881
30.94327 109.1006 263.8846 2.690193 -7.036004 4.951553 -0.6856589 -7.160201 5.583197 2.368796e-10 51.30487 -3.007073e-10 3.058913 -3.428917 -7.047648 -6.855536 3.847888 -13.22932 -1.029714e-09 16.74587 3.292622e-10 -1.130981 -14.88311 20.30137 -3.841309 0.5986814 3.950868 -0.2740726 8.5536 -4.653143 2.745792 23.52691 6.439178 2.177364 -16.77864 9.376883 3.913224 -15.25475 9.911629 85.48825 29.56721 -12.27124 1.987755e-10 -1.314536e-11 14.03224 -19.59054 11.88659 10.90829 4.416934 -15.26026 -3.134752 -87.30012 25.35082 12.77117 -6.406895e-11 2.737329e-11 -14.06852 1.607858 8.642815 12.31337
31.81783 109.4418 269.1726 2.607248 -6.620155 5.665461 -0.2905218 -11.8632 4.908629 6.845481e-10 46.26754 -4.276523e-10 2.685019 -4.426756 -7.355571 -6.75224 7.787609 -13.49428 -8.433951e-10 14.4071 9.483173e-10 -0.9404652 -16.59753 19.96669 -3.784778 0.6147124 3.342821 0.07117153 8.157033 -5.096695 2.77597 23.5138 6.370911 2.074486 -16.73429 9.445123 3.560793 -14.54245 9.665089 86.08345 29.27804 -13.80638 4.732264e-10 -2.44256e-10 12.66617 -18.48745 11.62071 10.0091 5.036127 -15.97065 -3.217204 -85.81958 25.4037 10.24715 3.24615e-11 -1.762107e-10 -16.19001 2.301858 9.316759 11.10369
32.59796 109.2839 274.5306 2.515255 -6.262193 6.305192 0.1665026 -16.27412 4.19597 9.87791e-10 39.53279 -3.935336e-10 2.596632 -5.647138 -7.73934 -6.462308 11.01001 -13.16858 -4.581234e-10 12.72098 1.469474e-09 -0.9691064 -18.08961 19.41263 -3.647686 0.6610822 2.911381 0.4098662 7.925019 -5.599705 2.795526 23.48331 6.274964 1.935863 -16.60095 9.451469 3.096251 -14.01667 9.530278 87.14702 28.80376 -15.50782 6.569225e-10 -4.68248e-10 11.51382 -18.01361 11.73127 9.414561 5.713269 -16.93692 -3.390996 -84.60128 24.99111 7.740849 1.324352e-10 -3.812125e-10 -18.9549 3.01946 9.640666 9.92574
33.25207 108.648 279.9058 2.348106 -5.901279 6.817584 0.7347484 -20.26062 3.581747 1.325332e-09 32.1412 -3.423098e-10 2.261469 -7.237321 -8.017438 -6.084932 13.82088 -12.87413 -1.181562e-10 11.8129 2.086998e-09 -1.084636 -19.29218 18.85252 -3.434113 0.7129919 2.517408 0.7657817 7.644114 -6.036003 2.827625 23.42592 6.105932 1.791837 -16.47435 9.398305 2.609429 -13.48318 9.384996 87.82414 28.29903 -16.98748 8.946525e-10 -7.24364e-10 10.37495 -17.26546 11.71518 8.676398 6.344104 -17.82085 -3.4965 -83.33812 24.59799 5.387874 2.247486e-10 -6.107257e-10 -21.43366 3.753424 10.06268 8.677225
33.75999 107.6553 285.2474 2.149534 -5.625583 7.197009 1.339989 -23.54501 3.136309 1.63204e-09 25.61026 -2.891661e-10 1.725039 -8.677325 -8.226166 -5.729772 16.21096 -12.69303 8.046371e-11 12.13909 2.678609e-09 -1.272744 -20.07906 18.32077 -3.183297 0.7656597 2.160327 1.089122 7.371622 -6.36668 2.870951 23.37529 5.90797 1.676479 -16.37827 9.311774 2.194941 -12.91699 9.247676 88.17035 27.84529 -18.20935 1.138349e-09 -9.6892e-10 9.2184 -16.32577 11.55633 7.851426 6.832764 -18.52388 -3.554057 -82.13378 24.28846 3.359193 2.916646e-10 -8.192232e-10 -23.32995 4.448625 10.53718 7.491749
34.14417 106.4857 290.6 2.004736 -5.567347 7.469233 1.878865 -25.67119 2.892615 1.823791e-09 21.07795 -2.452664e-10 1.262255 -9.569586 -8.440243 -5.472605 17.83988 -12.48381 1.226994e-10 13.95054 3.08984e-09 -1.576084 -20.34788 17.86093 -2.943572 0.8367717 1.922184 1.310725 7.230967 -6.572884 2.928822 23.41362 5.735169 1.604766 -16.29517 9.233451 1.904785 -12.42348 9.185015 88.60301 27.45785 -19.17823 1.309255e-09 -1.148302e-09 8.219922 -15.64978 11.44595 7.204887 7.123411 -19.03969 -3.620596 -81.40035 24.03121 1.906446 3.262116e-10 -9.619954e-10 -24.60556 4.992298 10.86802 6.612447
34.45535 105.4225 296.0314 1.987652 -5.836076 7.699054 2.224342 -26.58113 2.868444 1.843963e-09 20.22024 -2.674089e-10 0.9946589 -9.355887 -8.728221 -5.462459 18.92842 -12.34772 -7.314115e-11 17.48234 3.232181e-09 -1.969113 -20.12182 17.55043 -2.781057 0.9338453 1.774499 1.380719 7.277274 -6.638947 3.010575 23.62997 5.64996 1.607836 -16.24525 9.227155 1.830355 -11.95812 9.214129 89.41171 27.19134 -19.96148 1.366556e-09 -1.219769e-09 7.317365 -15.37416 11.4102 6.810015 7.152298 -19.30919 -3.732185 -81.33935 23.94321 1.10246 3.177605e-10 -9.98337e-10 -25.08151 5.324495 11.02429 6.186137
34.73107 104.716 301.5139 2.018099 -6.308775 7.886682 2.525874 -25.89113 3.064325 1.765806e-09 21.86695 -3.625119e-10 0.6034383 -8.60247 -8.878748 -5.539317 18.9856 -12.33828 -5.131125e-10 22.58123 3.258119e-09 -2.381715 -19.21352 17.43484 -2.624432 1.027777 1.752334 1.337135 7.428464 -6.507582 3.105028 23.91715 5.571288 1.673303 -16.25873 9.207535 1.906448 -11.60182 9.294978 89.95351 27.0511 -20.24115 1.384587e-09 -1.218163e-09 6.640739 -15.14521 11.26344 6.51956 6.909865 -19.24928 -3.813568 -81.69515 24.06595 1.140419 2.793466e-10 -9.598189e-10 -24.45935 5.490487 11.18555 6.055335
34.97326 104.51 307.0086 2.02037 -6.908432 7.97742 2.973988 -23.73374 3.456144 1.677037e-09 24.10879 -5.009022e-10 -0.06881708 -8.02473 -8.851161 -5.532952 17.84257 -12.36509 -1.173845e-09 29.42793 3.379861e-09 -2.886545 -17.61234 17.48917 -2.391542 1.130761 1.888347 1.246535 7.635141 -6.209074 3.222862 24.27547 5.429167 1.772189 -16.35112 9.133577 2.035019 -11.39595 9.432604 90.25207 26.99107 -20.09889 1.433687e-09 -1.203859e-09 6.224587 -14.80838 11.00224 6.232869 6.483806 -18.98049 -3.829259 -82.50765 24.37449 1.94475 2.275131e-10 -9.023018e-10 -23.00688 5.56695 11.44882 6.070089
35.18283 104.8127 312.4725 1.985565 -7.582089 7.91255 3.516136 -20.10591 3.979565 1.664095e-09 26.00479 -6.667653e-10 -0.942006 -8.212367 -8.638223 -5.36189 15.2941 -12.4207 -2.027593e-09 36.86415 3.780119e-09 -3.461493 -15.54763 17.84516 -2.103713 1.258365 2.210297 1.119618 7.820678 -5.740274 3.37819 24.72653 5.200218 1.863628 -16.48269 9.026075 2.1406 -11.45146 9.608759 90.32218 26.98747 -19.42042 1.568268e-09 -1.218558e-09 6.320221 -14.41458 10.65062 6.020241 5.971491 -18.51666 -3.72919 -83.92709 24.87973 3.527593 1.820677e-10 -8.712852e-10 -20.85933 5.507726 11.83547 6.246828
35.33265 105.4665 317.7176 1.824086 -8.07018 7.617903 4.092874 -15.57924 4.431334 1.840234e-09 26.18935 -8.495558e-10 -2.240689 -9.650739 -8.088592 -4.952761 11.70223 -12.67954 -3.01886e-09 42.527 4.609953e-09 -3.841784 -13.41585 18.51255 -1.773684 1.348411 2.598204 1.017906 7.788659 -5.114726 3.535102 25.04365 4.837433 1.904646 -16.60918 8.826319 2.101856 -11.75937 9.687092 89.23646 26.96751 -17.91611 1.868011e-09 -1.313675e-09 6.93774 -13.52621 9.926213 5.698639 5.488135 -17.80461 -3.443395 -85.14466 25.49638 5.592556 1.708694e-10 -9.179843e-10 -18.01375 5.444153 12.55056 6.233651
